<svg version="1.1" xmlns="http://www.w3.org/2000/svg" xmlns:xlink="http://www.w3.org/1999/xlink" width="1024" height="1024" viewBox="-42.7275 22.1557 0.522 0.3013"><g transform="scale(0.0001,-0.0001)"><path class="C3303401" d="M-425255 -221607l394 -332l131 -173l-24 -144l1168 -775l118 -30l598 138l217 -153l143 8l-148 -104l497 -256l106 -259l-130 129l-343 -116l-375 -235l128 -106l-373 -229l-373 -45l-296 69l-711 -133l-228 -139l-177 138l-230 -11l-196 -205l-163 18l-242 136l179 173l70 377l-105 254l-223 55l-286 -262l-316 -130l-107 68l-323 -42l-238 141l5 160l-167 67l11 364l149 322l-29 195l400 272l162 311l130 -34l47 252l269 -90l207 169l253 6l100 151l123 80l198 -50Z" centroide="-425015.49515399925,-223198.52806391806"></path></g></svg>